<svg width="14" height="11" viewBox="0 0 14 11" fill="none" xmlns="http://www.w3.org/2000/svg">
<path d="M5.72556 9.48384L12.8078 2.40157C13.2593 1.95008 13.2593 1.21519 12.8081 0.76347C12.5894 0.544802 12.2986 0.424438 11.9893 0.424438C11.6797 0.424438 11.3889 0.545041 11.1702 0.76371L4.92137 7.01231L2.16691 4.15739C1.94657 3.92913 1.65045 3.80349 1.33324 3.80349C1.03185 3.80349 0.746287 3.91858 0.529297 4.12814C0.0696609 4.57171 0.0564736 5.30612 0.500045 5.76576L4.07307 9.46922C4.28743 9.69148 4.58738 9.82048 4.8962 9.82312L4.90651 10.3027V9.82312C5.21125 9.82312 5.51 9.6994 5.72556 9.48384Z" fill="#53C2A1"/>
</svg>
